<svg xmlns="http://www.w3.org/2000/svg" viewBox="0 0 20.4 23"><title>icon_super</title><path d="M20.1 15.6l-.3-1-2.2.6-1.2-.7 2.2-.6-.3-1-3.2.8-2.4-1.4.9-.9-.9-.9 2.4-1.4 3.2.8.3-1-2.2-.6 1.2-.7 2.2.6.3-1-1.3-.3 1.6-.9-.5-.9-1.6.9.4-1-1-.3-.6 2.2-1.2.7.6-2.2-1-.3-.8 3.2-2.5 1.5.2.3-1.6-1.6V6.6l2.4-2.4-.7-.7-1.7 1.7V3.6l1.8-1.8-.7-.7-1.1 1.1V0h-1v2.3L8.6 1.1l-.7.8 1.8 1.8v1.6L8.1 3.6l-.8.7 2.3 2.3v1.8L8.2 10l.1-.2-2.6-1.5-.8-3.1-1 .3.6 2.2-1.2-.8-.6-2.2-1 .3.3 1.3-1.5-1-.5.9 1.5.9-1.2.3.3 1 2.2-.6 1.2.7-2.2.6.2.9 3.2-.8 2.4 1.4-.9.9.9.9-2.4 1.4-3.2-.9-.3 1 2.3.6-1.2.7-2.2-.6-.3 1 1.2.3-1.5.9.5.9 1.6-.9-.4 1.2 1 .3.6-2.2 1.2-.7-.6 2.2 1 .3.8-3.2 2.6-1.5-.1-.2 1.5 1.5v1.8l-2.4 2.4.7.7 1.7-1.7v1.6l-1.8 1.8.7.7 1.1-1.1V23h1v-2.2l1.1 1.1.7-.7-1.8-1.8v-1.6l1.7 1.7.7-.7-2.4-2.4v-1.9l1.6-1.6-.2.3 2.5 1.5.8 3.2 1-.3-.6-2.2 1.2.7.6 2.2 1-.3-.3-1.2 1.6.9.5-.9-1.6-.9zm-9.9-2l-2.1-2.1 2.1-2.1 2.1 2.1z" fill="#000c31"/></svg>