<svg xmlns="http://www.w3.org/2000/svg" viewBox="0 0 24 24"><title>icon_system</title><path d="M13.8 13.7l1.7-1.7-.9-1L17 9.6l3.2.8.3-1-2.2-.6 1.2-.7 2.2.6.3-1-1.3-.3 1.6-.9-.5-.9-1.6.9.3-1.2-1-.3-.6 2.2-1.2.7.6-2.2-1-.3-.8 3.2-2.5 1.5.2.3-1.5-1.6V7.1L15 4.6l-.7-.7-1.7 1.7V4.1l1.8-1.8-.7-.7-1.1 1.1V.4h-1v2.3l-1.2-1.1-.6.7 1.8 1.8v1.6L9.9 4.1l-.7.7 2.4 2.3v1.8L10 10.5l-.4.4m0 0L8.5 12l.9.9L7 14.2l-3.2-.8-.3 1 2.2.6-1.2.7-2.2-.6-.3 1 1.2.3-1.5.9.5.9 1.6-.9-.3 1.3 1 .3.6-2.2 1.2-.7-.6 2 1 .3.8-3.2 2.6-1.5v-.2l1.6 1.5v1.8l-2.4 2.4.7.7 1.7-1.7v1.6l-1.9 1.8.7.7 1.1-1.1v2.3h1v-2.2l1.1 1.1.7-.7-1.8-1.8v-1.6l1.6 1.7.7-.7-2.4-2.4v-1.9l1.5-1.6v.3m-2 .4l-2.1-2.1 2.1-2 2.1 2.1" fill="#0c0c0c"/><path d="M12 1A11 11 0 1 1 1 12 11 11 0 0 1 12 1m0-1a12 12 0 1 0 12 12A12 12 0 0 0 12 0z" fill="#0c0c0c"/><path fill="#0c0c0c" stroke="#000" stroke-miterlimit="10" d="M3.4 3.8l16.7 16.7"/></svg>