<svg xmlns="http://www.w3.org/2000/svg" viewBox="0 0 20.52 23.4"><title>icon_ecology</title><path d="M2.62 2.7a7.67 7.67 0 0 0 6.1 3.8c4 .3 7.1 2 8.3 4.2.9 1.7.6 3.8-.9 6.2-1.1 1.8-1.7 3.1-1.7 4l-1.1.2a16.67 16.67 0 0 1-2.7.2c-2.5 0-6-.6-8-3.4-2.1-3-2.2-8.2 0-15.2M2.42 0c-7 20 2.9 22.4 8.2 22.4a19.5 19.5 0 0 0 2.9-.2l2.4-.4c-.7-.2-1-1.1 1-4.3 4.4-6.9-1.2-11.3-8.1-11.9-5-.5-6.4-5.6-6.4-5.6zm14.9 21.5l-1.4.2h.3a2 2 0 0 0 1.1-.2z" fill="#000c31"/><path d="M20.32 23.4c-13.7-2.7-14.5-12.8-14.5-12.9l1-.1c0 .4.8 9.5 13.7 12z" fill="#000c31"/></svg>