<svg xmlns="http://www.w3.org/2000/svg" viewBox="0 0 39 54"><title>icon_two</title><path fill="#000c31" d="M19 47h1v7h-1zm0-47h1v7h-1zm0 12h1v7h-1zm0 12h1v7h-1zm0 12h1v7h-1zm8-6.3a3.5 3.5 0 1 1 3.5-3.5 3.54 3.54 0 0 1-3.5 3.5zm0-6a2.5 2.5 0 1 0 2.5 2.5 2.48 2.48 0 0 0-2.5-2.5zm7-13.5a4 4 0 1 1-4 4 4 4 0 0 1 4-4m0-1a5 5 0 1 0 5 5 5 5 0 0 0-5-5zm0 25a4 4 0 1 1-4 4 4 4 0 0 1 4-4m0-1a5 5 0 1 0 5 5 5 5 0 0 0-5-5z"/><path fill="#000c31" d="M27.869 23.136l3.545-5.328.833.554L28.7 23.69zm-.031 5.752l.843-.539 3.504 5.475-.843.539zM12 29.7a3.5 3.5 0 1 1 3.5-3.5 3.54 3.54 0 0 1-3.5 3.5zm0-6a2.5 2.5 0 1 0 2.5 2.5 2.48 2.48 0 0 0-2.5-2.5zM5 10.2a4 4 0 1 1-4 4 4 4 0 0 1 4-4m0-1a5 5 0 0 0 0 10 5 5 0 0 0 0-10zm0 25a4 4 0 1 1-4 4 4 4 0 0 1 4-4m0-1a5 5 0 0 0 0 10 5 5 0 0 0 0-10z"/><path fill="#000c31" d="M6.804 18.398l.833-.554 3.546 5.328-.832.554zm-.041 15.397l3.502-5.476.842.539-3.502 5.476z"/></svg>