<svg version="1.2" baseProfile="tiny" xmlns="http://www.w3.org/2000/svg" viewBox="0 0 160 35"><title>logo_vestfrost</title><path fill="#000C31" d="M128.1 22.5c0-6.9-4.8-11.5-11.6-11.5s-11.7 4.4-11.7 11.5S109.7 34 116.7 34c6.4 0 11.4-4.5 11.4-11.5zm.9 8.5v3h9.3c3.6.1 6.5-2.8 6.6-6.4.1-7.3-8.3-6.1-8.3-10.1 0-1.4.7-2.9 3.4-2.9h2.6v-2.9h-5.5c-5.2 0-8.2 3.6-8.2 7.1 0 6.5 8.4 6.7 8.3 10 0 1.1-.7 2.1-2.6 2.1l-5.6.1zm31 3h-4.1c-5.7 0-9.5-3-9.5-8.5V14.6h-2.8v-2.9h2.8V5h7v6.7h5.8v2.9h-5.8v11c0 2.8 1 5.4 3.5 5.4h3l.1 3zM89.6 0v3h-3c-2.5 0-3.5 2.6-3.5 5.4v3.2h5.8v2.9H83V34h-7V14.6h-2.8v-2.9H76V8.5C76 3 79.8 0 85.5 0h4.1zM41.9 31v3h9.3c3.6.1 6.5-2.8 6.6-6.4.1-7.3-8.3-6.1-8.3-10.1 0-1.4.7-2.9 3.4-2.9h2.6v-2.9H50c-5.2 0-8.2 3.6-8.2 7.1 0 6.5 8.4 6.7 8.3 10 0 1.1-.7 2.1-2.6 2.1l-5.6.1zM22.1 11.7h-4.9l-4.8 15.7-4.8-15.7H0L7.9 34h6.5l7.7-22.3zm18.8 9.1v1.9H27c.3 4.5 3.4 8.4 7.7 8.4h6.2v3h-8.2c-6.8 0-12.7-3.2-12.7-10.9 0-7.2 5.4-12.1 11.2-12.1 5.6-.1 9.7 3.7 9.7 9.7zM35 19c0-2.1-1.2-4.7-3.8-4.7-3.2 0-4.2 2.7-4.3 5.7h8v-.4c.1-.2.1-.4.1-.6zm37.9 15h-4.1c-5.7 0-9.5-3-9.5-8.5V14.6h-2.8v-2.9h2.8V5h7v6.7h5.8v2.9h-5.8v11c0 2.8 1 5.4 3.5 5.4h3l.1 3zm31.4-22.3h-.9c-3 0-5.4 2-6.7 5.3v-5.3h-7V34h7V23.2c0-2.6 1.5-4.8 4.6-4.9h3v-6.6zm16.6 10.8c0 3.8-1.3 8.1-4.3 8.1s-4.6-4.2-4.6-8c0-3.6 1-8 4.4-8s4.5 4.2 4.5 7.9z"/></svg>