<svg xmlns="http://www.w3.org/2000/svg" viewBox="0 0 215 653"><title>scetch</title><path d="M.5 21v1h214v-1H.5zM93 16a1.5 1.5 0 1 0-1.5-1.5A1.5 1.5 0 0 0 93 16zm0-5a1.5 1.5 0 1 0-1.5-1.5A1.5 1.5 0 0 0 93 11zm-7.61 531l-6.89 72h58l-6.88-72H85.39zm47.11-96l-5.93-51H88.44l-5.94 51h50zm0 71l-5.93-51H88.44l-5.94 51h50zm0-144l-5.93-76H88.44l-5.94 76h50zm-9-231h-32l-5 54h42zm-37 123h42l-5-54h-32zM125 91H90l-5.5 35h46z" fill="none" stroke="#c9ccd7" stroke-miterlimit="10"/><path d="M163.5 5h-110v14h110V5zm-134 609h156v-92h-156v92zm0-168h156v-68h-156v68zm0 71h156v-68h-156v68zm0-144h156V269h-156v104zm0-177h156v-66h-156v66zm0 69h156v-66h-156v66zm0-191v52h156V74h-156z" fill="none" stroke="#c9ccd7" stroke-miterlimit="10"/><path d="M211.5 1a2 2 0 0 1 2 2v647a2 2 0 0 1-2 2H3.5a2 2 0 0 1-2-2V3a2 2 0 0 1 2-2h208m0-1H3.5a3 3 0 0 0-3 3v647a3 3 0 0 0 3 3h208a3 3 0 0 0 3-3V3a3 3 0 0 0-3-3z" fill="#c9ccd7"/></svg>